<?xml version="1.0" standalone="no"?>
<svg xmlns:xlink="http://www.w3.org/1999/xlink" id="wave" style="transform:rotate(0deg); transition: 0.3s" viewBox="0 0 1440 490" version="1.1" xmlns="http://www.w3.org/2000/svg"><defs><linearGradient id="sw-gradient-0" x1="0" x2="0" y1="1" y2="0"><stop stop-color="rgba(255, 255, 255, 1)" offset="0%"/><stop stop-color="rgba(35.283, 175.562, 236.245, 1)" offset="100%"/></linearGradient></defs><path style="transform:translate(0, 0px); opacity:1" fill="url(#sw-gradient-0)" d="M0,147L80,122.5C160,98,320,49,480,57.2C640,65,800,131,960,196C1120,261,1280,327,1440,294C1600,261,1760,131,1920,122.5C2080,114,2240,229,2400,228.7C2560,229,2720,114,2880,81.7C3040,49,3200,98,3360,138.8C3520,180,3680,212,3840,187.8C4000,163,4160,82,4320,65.3C4480,49,4640,98,4800,114.3C4960,131,5120,114,5280,98C5440,82,5600,65,5760,89.8C5920,114,6080,180,6240,220.5C6400,261,6560,278,6720,285.8C6880,294,7040,294,7200,253.2C7360,212,7520,131,7680,130.7C7840,131,8000,212,8160,253.2C8320,294,8480,294,8640,261.3C8800,229,8960,163,9120,187.8C9280,212,9440,327,9600,318.5C9760,310,9920,180,10080,171.5C10240,163,10400,278,10560,318.5C10720,359,10880,327,11040,310.3C11200,294,11360,294,11440,294L11520,294L11520,490L11440,490C11360,490,11200,490,11040,490C10880,490,10720,490,10560,490C10400,490,10240,490,10080,490C9920,490,9760,490,9600,490C9440,490,9280,490,9120,490C8960,490,8800,490,8640,490C8480,490,8320,490,8160,490C8000,490,7840,490,7680,490C7520,490,7360,490,7200,490C7040,490,6880,490,6720,490C6560,490,6400,490,6240,490C6080,490,5920,490,5760,490C5600,490,5440,490,5280,490C5120,490,4960,490,4800,490C4640,490,4480,490,4320,490C4160,490,4000,490,3840,490C3680,490,3520,490,3360,490C3200,490,3040,490,2880,490C2720,490,2560,490,2400,490C2240,490,2080,490,1920,490C1760,490,1600,490,1440,490C1280,490,1120,490,960,490C800,490,640,490,480,490C320,490,160,490,80,490L0,490Z"/><defs><linearGradient id="sw-gradient-1" x1="0" x2="0" y1="1" y2="0"><stop stop-color="rgba(255, 255, 255, 1)" offset="0%"/><stop stop-color="rgba(0, 178, 255, 0.52)" offset="100%"/></linearGradient></defs><path style="transform:translate(0, 50px); opacity:0.9" fill="url(#sw-gradient-1)" d="M0,245L80,236.8C160,229,320,212,480,171.5C640,131,800,65,960,40.8C1120,16,1280,33,1440,73.5C1600,114,1760,180,1920,236.8C2080,294,2240,343,2400,326.7C2560,310,2720,229,2880,220.5C3040,212,3200,278,3360,285.8C3520,294,3680,245,3840,236.8C4000,229,4160,261,4320,228.7C4480,196,4640,98,4800,122.5C4960,147,5120,294,5280,294C5440,294,5600,147,5760,89.8C5920,33,6080,65,6240,98C6400,131,6560,163,6720,204.2C6880,245,7040,294,7200,310.3C7360,327,7520,310,7680,269.5C7840,229,8000,163,8160,122.5C8320,82,8480,65,8640,65.3C8800,65,8960,82,9120,114.3C9280,147,9440,196,9600,212.3C9760,229,9920,212,10080,187.8C10240,163,10400,131,10560,155.2C10720,180,10880,261,11040,245C11200,229,11360,114,11440,57.2L11520,0L11520,490L11440,490C11360,490,11200,490,11040,490C10880,490,10720,490,10560,490C10400,490,10240,490,10080,490C9920,490,9760,490,9600,490C9440,490,9280,490,9120,490C8960,490,8800,490,8640,490C8480,490,8320,490,8160,490C8000,490,7840,490,7680,490C7520,490,7360,490,7200,490C7040,490,6880,490,6720,490C6560,490,6400,490,6240,490C6080,490,5920,490,5760,490C5600,490,5440,490,5280,490C5120,490,4960,490,4800,490C4640,490,4480,490,4320,490C4160,490,4000,490,3840,490C3680,490,3520,490,3360,490C3200,490,3040,490,2880,490C2720,490,2560,490,2400,490C2240,490,2080,490,1920,490C1760,490,1600,490,1440,490C1280,490,1120,490,960,490C800,490,640,490,480,490C320,490,160,490,80,490L0,490Z"/><defs><linearGradient id="sw-gradient-2" x1="0" x2="0" y1="1" y2="0"><stop stop-color="rgba(255, 255, 255, 1)" offset="0%"/><stop stop-color="rgba(0, 163.319, 233.968, 1)" offset="100%"/></linearGradient></defs><path style="transform:translate(0, 100px); opacity:0.8" fill="url(#sw-gradient-2)" d="M0,147L80,122.5C160,98,320,49,480,24.5C640,0,800,0,960,40.8C1120,82,1280,163,1440,196C1600,229,1760,212,1920,236.8C2080,261,2240,327,2400,326.7C2560,327,2720,261,2880,269.5C3040,278,3200,359,3360,351.2C3520,343,3680,245,3840,236.8C4000,229,4160,310,4320,334.8C4480,359,4640,327,4800,318.5C4960,310,5120,327,5280,277.7C5440,229,5600,114,5760,122.5C5920,131,6080,261,6240,326.7C6400,392,6560,392,6720,343C6880,294,7040,196,7200,138.8C7360,82,7520,65,7680,98C7840,131,8000,212,8160,236.8C8320,261,8480,229,8640,179.7C8800,131,8960,65,9120,89.8C9280,114,9440,229,9600,253.2C9760,278,9920,212,10080,187.8C10240,163,10400,180,10560,204.2C10720,229,10880,261,11040,285.8C11200,310,11360,327,11440,334.8L11520,343L11520,490L11440,490C11360,490,11200,490,11040,490C10880,490,10720,490,10560,490C10400,490,10240,490,10080,490C9920,490,9760,490,9600,490C9440,490,9280,490,9120,490C8960,490,8800,490,8640,490C8480,490,8320,490,8160,490C8000,490,7840,490,7680,490C7520,490,7360,490,7200,490C7040,490,6880,490,6720,490C6560,490,6400,490,6240,490C6080,490,5920,490,5760,490C5600,490,5440,490,5280,490C5120,490,4960,490,4800,490C4640,490,4480,490,4320,490C4160,490,4000,490,3840,490C3680,490,3520,490,3360,490C3200,490,3040,490,2880,490C2720,490,2560,490,2400,490C2240,490,2080,490,1920,490C1760,490,1600,490,1440,490C1280,490,1120,490,960,490C800,490,640,490,480,490C320,490,160,490,80,490L0,490Z"/></svg>