<?xml version="1.0" standalone="no"?>
<svg xmlns:xlink="http://www.w3.org/1999/xlink" id="wave" style="transform:rotate(0deg); transition: 0.3s" viewBox="0 0 1440 490" version="1.1" xmlns="http://www.w3.org/2000/svg"><defs><linearGradient id="sw-gradient-0" x1="0" x2="0" y1="1" y2="0"><stop stop-color="rgba(30, 41, 59, 1)" offset="0%"/><stop stop-color="rgba(249, 115, 22, 1)" offset="100%"/></linearGradient></defs><path style="transform:translate(0, 0px); opacity:1" fill="url(#sw-gradient-0)" d="M0,196L60,163.3C120,131,240,65,360,81.7C480,98,600,196,720,204.2C840,212,960,131,1080,81.7C1200,33,1320,16,1440,65.3C1560,114,1680,229,1800,302.2C1920,376,2040,408,2160,392C2280,376,2400,310,2520,236.8C2640,163,2760,82,2880,81.7C3000,82,3120,163,3240,171.5C3360,180,3480,114,3600,106.2C3720,98,3840,147,3960,187.8C4080,229,4200,261,4320,261.3C4440,261,4560,229,4680,245C4800,261,4920,327,5040,359.3C5160,392,5280,392,5400,334.8C5520,278,5640,163,5760,114.3C5880,65,6000,82,6120,81.7C6240,82,6360,65,6480,98C6600,131,6720,212,6840,220.5C6960,229,7080,163,7200,179.7C7320,196,7440,294,7560,285.8C7680,278,7800,163,7920,114.3C8040,65,8160,82,8280,147C8400,212,8520,327,8580,383.8L8640,441L8640,490L8580,490C8520,490,8400,490,8280,490C8160,490,8040,490,7920,490C7800,490,7680,490,7560,490C7440,490,7320,490,7200,490C7080,490,6960,490,6840,490C6720,490,6600,490,6480,490C6360,490,6240,490,6120,490C6000,490,5880,490,5760,490C5640,490,5520,490,5400,490C5280,490,5160,490,5040,490C4920,490,4800,490,4680,490C4560,490,4440,490,4320,490C4200,490,4080,490,3960,490C3840,490,3720,490,3600,490C3480,490,3360,490,3240,490C3120,490,3000,490,2880,490C2760,490,2640,490,2520,490C2400,490,2280,490,2160,490C2040,490,1920,490,1800,490C1680,490,1560,490,1440,490C1320,490,1200,490,1080,490C960,490,840,490,720,490C600,490,480,490,360,490C240,490,120,490,60,490L0,490Z"/></svg>