<?xml version="1.0" standalone="no"?>
<svg xmlns:xlink="http://www.w3.org/1999/xlink" id="wave" style="transform:rotate(180deg); transition: 0.3s" viewBox="0 0 1440 490" version="1.1" xmlns="http://www.w3.org/2000/svg"><defs><linearGradient id="sw-gradient-0" x1="0" x2="0" y1="1" y2="0"><stop stop-color="rgba(255, 255, 255, 1)" offset="0%"/><stop stop-color="rgba(249, 115, 22, 1)" offset="100%"/></linearGradient></defs><path style="transform:translate(0, 0px); opacity:1" fill="url(#sw-gradient-0)" d="M0,392L80,343C160,294,320,196,480,196C640,196,800,294,960,334.8C1120,376,1280,359,1440,334.8C1600,310,1760,278,1920,253.2C2080,229,2240,212,2400,196C2560,180,2720,163,2880,187.8C3040,212,3200,278,3360,326.7C3520,376,3680,408,3840,416.5C4000,425,4160,408,4320,392C4480,376,4640,359,4800,326.7C4960,294,5120,245,5280,228.7C5440,212,5600,229,5760,196C5920,163,6080,82,6240,57.2C6400,33,6560,65,6720,106.2C6880,147,7040,196,7200,220.5C7360,245,7520,245,7680,228.7C7840,212,8000,180,8160,138.8C8320,98,8480,49,8640,40.8C8800,33,8960,65,9120,98C9280,131,9440,163,9600,220.5C9760,278,9920,359,10080,359.3C10240,359,10400,278,10560,204.2C10720,131,10880,65,11040,89.8C11200,114,11360,229,11440,285.8L11520,343L11520,490L11440,490C11360,490,11200,490,11040,490C10880,490,10720,490,10560,490C10400,490,10240,490,10080,490C9920,490,9760,490,9600,490C9440,490,9280,490,9120,490C8960,490,8800,490,8640,490C8480,490,8320,490,8160,490C8000,490,7840,490,7680,490C7520,490,7360,490,7200,490C7040,490,6880,490,6720,490C6560,490,6400,490,6240,490C6080,490,5920,490,5760,490C5600,490,5440,490,5280,490C5120,490,4960,490,4800,490C4640,490,4480,490,4320,490C4160,490,4000,490,3840,490C3680,490,3520,490,3360,490C3200,490,3040,490,2880,490C2720,490,2560,490,2400,490C2240,490,2080,490,1920,490C1760,490,1600,490,1440,490C1280,490,1120,490,960,490C800,490,640,490,480,490C320,490,160,490,80,490L0,490Z"/><defs><linearGradient id="sw-gradient-1" x1="0" x2="0" y1="1" y2="0"><stop stop-color="rgba(255, 255, 255, 1)" offset="0%"/><stop stop-color="rgba(249, 115, 22, 1)" offset="100%"/></linearGradient></defs><path style="transform:translate(0, 50px); opacity:0.9" fill="url(#sw-gradient-1)" d="M0,294L80,302.2C160,310,320,327,480,343C640,359,800,376,960,334.8C1120,294,1280,196,1440,163.3C1600,131,1760,163,1920,220.5C2080,278,2240,359,2400,334.8C2560,310,2720,180,2880,171.5C3040,163,3200,278,3360,334.8C3520,392,3680,392,3840,359.3C4000,327,4160,261,4320,220.5C4480,180,4640,163,4800,155.2C4960,147,5120,147,5280,130.7C5440,114,5600,82,5760,114.3C5920,147,6080,245,6240,277.7C6400,310,6560,278,6720,261.3C6880,245,7040,245,7200,236.8C7360,229,7520,212,7680,220.5C7840,229,8000,261,8160,294C8320,327,8480,359,8640,310.3C8800,261,8960,131,9120,138.8C9280,147,9440,294,9600,359.3C9760,425,9920,408,10080,375.7C10240,343,10400,294,10560,228.7C10720,163,10880,82,11040,106.2C11200,131,11360,261,11440,326.7L11520,392L11520,490L11440,490C11360,490,11200,490,11040,490C10880,490,10720,490,10560,490C10400,490,10240,490,10080,490C9920,490,9760,490,9600,490C9440,490,9280,490,9120,490C8960,490,8800,490,8640,490C8480,490,8320,490,8160,490C8000,490,7840,490,7680,490C7520,490,7360,490,7200,490C7040,490,6880,490,6720,490C6560,490,6400,490,6240,490C6080,490,5920,490,5760,490C5600,490,5440,490,5280,490C5120,490,4960,490,4800,490C4640,490,4480,490,4320,490C4160,490,4000,490,3840,490C3680,490,3520,490,3360,490C3200,490,3040,490,2880,490C2720,490,2560,490,2400,490C2240,490,2080,490,1920,490C1760,490,1600,490,1440,490C1280,490,1120,490,960,490C800,490,640,490,480,490C320,490,160,490,80,490L0,490Z"/><defs><linearGradient id="sw-gradient-2" x1="0" x2="0" y1="1" y2="0"><stop stop-color="rgba(255, 255, 255, 1)" offset="0%"/><stop stop-color="rgba(249, 115, 22, 1)" offset="100%"/></linearGradient></defs><path style="transform:translate(0, 100px); opacity:0.8" fill="url(#sw-gradient-2)" d="M0,343L80,343C160,343,320,343,480,343C640,343,800,343,960,343C1120,343,1280,343,1440,310.3C1600,278,1760,212,1920,187.8C2080,163,2240,180,2400,155.2C2560,131,2720,65,2880,49C3040,33,3200,65,3360,106.2C3520,147,3680,196,3840,196C4000,196,4160,147,4320,130.7C4480,114,4640,131,4800,114.3C4960,98,5120,49,5280,81.7C5440,114,5600,229,5760,285.8C5920,343,6080,343,6240,285.8C6400,229,6560,114,6720,130.7C6880,147,7040,294,7200,302.2C7360,310,7520,180,7680,122.5C7840,65,8000,82,8160,147C8320,212,8480,327,8640,326.7C8800,327,8960,212,9120,138.8C9280,65,9440,33,9600,81.7C9760,131,9920,261,10080,326.7C10240,392,10400,392,10560,375.7C10720,359,10880,327,11040,277.7C11200,229,11360,163,11440,130.7L11520,98L11520,490L11440,490C11360,490,11200,490,11040,490C10880,490,10720,490,10560,490C10400,490,10240,490,10080,490C9920,490,9760,490,9600,490C9440,490,9280,490,9120,490C8960,490,8800,490,8640,490C8480,490,8320,490,8160,490C8000,490,7840,490,7680,490C7520,490,7360,490,7200,490C7040,490,6880,490,6720,490C6560,490,6400,490,6240,490C6080,490,5920,490,5760,490C5600,490,5440,490,5280,490C5120,490,4960,490,4800,490C4640,490,4480,490,4320,490C4160,490,4000,490,3840,490C3680,490,3520,490,3360,490C3200,490,3040,490,2880,490C2720,490,2560,490,2400,490C2240,490,2080,490,1920,490C1760,490,1600,490,1440,490C1280,490,1120,490,960,490C800,490,640,490,480,490C320,490,160,490,80,490L0,490Z"/></svg>