<?xml version="1.0" standalone="no"?>
<svg xmlns:xlink="http://www.w3.org/1999/xlink" id="wave" style="transform:rotate(180deg); transition: 0.3s" viewBox="0 0 1440 490" version="1.1" xmlns="http://www.w3.org/2000/svg"><defs><linearGradient id="sw-gradient-0" x1="0" x2="0" y1="1" y2="0"><stop stop-color="rgba(30, 41, 59, 1)" offset="0%"/><stop stop-color="rgba(249, 115, 22, 1)" offset="100%"/></linearGradient></defs><path style="transform:translate(0, 0px); opacity:1" fill="url(#sw-gradient-0)" d="M0,49L40,65.3C80,82,160,114,240,114.3C320,114,400,82,480,98C560,114,640,180,720,212.3C800,245,880,245,960,245C1040,245,1120,245,1200,269.5C1280,294,1360,343,1440,343C1520,343,1600,294,1680,294C1760,294,1840,343,1920,351.2C2000,359,2080,327,2160,285.8C2240,245,2320,196,2400,204.2C2480,212,2560,278,2640,269.5C2720,261,2800,180,2880,187.8C2960,196,3040,294,3120,343C3200,392,3280,392,3360,400.2C3440,408,3520,425,3600,359.3C3680,294,3760,147,3840,122.5C3920,98,4000,196,4080,261.3C4160,327,4240,359,4320,359.3C4400,359,4480,327,4560,277.7C4640,229,4720,163,4800,138.8C4880,114,4960,131,5040,179.7C5120,229,5200,310,5280,343C5360,376,5440,359,5520,294C5600,229,5680,114,5720,57.2L5760,0L5760,490L5720,490C5680,490,5600,490,5520,490C5440,490,5360,490,5280,490C5200,490,5120,490,5040,490C4960,490,4880,490,4800,490C4720,490,4640,490,4560,490C4480,490,4400,490,4320,490C4240,490,4160,490,4080,490C4000,490,3920,490,3840,490C3760,490,3680,490,3600,490C3520,490,3440,490,3360,490C3280,490,3200,490,3120,490C3040,490,2960,490,2880,490C2800,490,2720,490,2640,490C2560,490,2480,490,2400,490C2320,490,2240,490,2160,490C2080,490,2000,490,1920,490C1840,490,1760,490,1680,490C1600,490,1520,490,1440,490C1360,490,1280,490,1200,490C1120,490,1040,490,960,490C880,490,800,490,720,490C640,490,560,490,480,490C400,490,320,490,240,490C160,490,80,490,40,490L0,490Z"/></svg>