<?xml version="1.0" standalone="no"?>
<svg xmlns:xlink="http://www.w3.org/1999/xlink" id="wave" style="transform:rotate(0deg); transition: 0.3s" viewBox="0 0 1440 490" version="1.1" xmlns="http://www.w3.org/2000/svg"><defs><linearGradient id="sw-gradient-0" x1="0" x2="0" y1="1" y2="0"><stop stop-color="rgba(255, 255, 255, 1)" offset="0%"/><stop stop-color="rgba(34, 197, 94, 1)" offset="100%"/></linearGradient></defs><path style="transform:translate(0, 0px); opacity:1" fill="url(#sw-gradient-0)" d="M0,49L288,441L576,98L864,196L1152,98L1440,245L1728,245L2016,441L2304,294L2592,245L2880,441L3168,245L3456,294L3744,245L4032,441L4320,147L4608,0L4896,392L5184,98L5472,196L5760,98L6048,245L6336,343L6624,98L6912,245L6912,490L6624,490L6336,490L6048,490L5760,490L5472,490L5184,490L4896,490L4608,490L4320,490L4032,490L3744,490L3456,490L3168,490L2880,490L2592,490L2304,490L2016,490L1728,490L1440,490L1152,490L864,490L576,490L288,490L0,490Z"/><defs><linearGradient id="sw-gradient-1" x1="0" x2="0" y1="1" y2="0"><stop stop-color="rgba(255, 255, 255, 1)" offset="0%"/><stop stop-color="rgba(34, 197, 94, 1)" offset="100%"/></linearGradient></defs><path style="transform:translate(0, 50px); opacity:0.9" fill="url(#sw-gradient-1)" d="M0,98L288,343L576,49L864,294L1152,245L1440,147L1728,392L2016,196L2304,147L2592,245L2880,245L3168,49L3456,147L3744,441L4032,392L4320,392L4608,343L4896,0L5184,147L5472,343L5760,196L6048,441L6336,392L6624,147L6912,245L6912,490L6624,490L6336,490L6048,490L5760,490L5472,490L5184,490L4896,490L4608,490L4320,490L4032,490L3744,490L3456,490L3168,490L2880,490L2592,490L2304,490L2016,490L1728,490L1440,490L1152,490L864,490L576,490L288,490L0,490Z"/><defs><linearGradient id="sw-gradient-2" x1="0" x2="0" y1="1" y2="0"><stop stop-color="rgba(255, 255, 255, 1)" offset="0%"/><stop stop-color="rgba(34, 197, 94, 1)" offset="100%"/></linearGradient></defs><path style="transform:translate(0, 100px); opacity:0.8" fill="url(#sw-gradient-2)" d="M0,392L288,0L576,147L864,49L1152,441L1440,392L1728,98L2016,392L2304,392L2592,441L2880,49L3168,343L3456,98L3744,98L4032,0L4320,392L4608,294L4896,245L5184,98L5472,49L5760,441L6048,98L6336,441L6624,0L6912,343L6912,490L6624,490L6336,490L6048,490L5760,490L5472,490L5184,490L4896,490L4608,490L4320,490L4032,490L3744,490L3456,490L3168,490L2880,490L2592,490L2304,490L2016,490L1728,490L1440,490L1152,490L864,490L576,490L288,490L0,490Z"/></svg>