<?xml version="1.0" standalone="no"?>
<svg xmlns:xlink="http://www.w3.org/1999/xlink" id="wave" style="transform:rotate(0deg); transition: 0.3s" viewBox="0 0 1440 490" version="1.1" xmlns="http://www.w3.org/2000/svg"><defs><linearGradient id="sw-gradient-0" x1="0" x2="0" y1="1" y2="0"><stop stop-color="rgba(30, 41, 59, 1)" offset="0%"/><stop stop-color="rgba(249, 115, 22, 1)" offset="100%"/></linearGradient></defs><path style="transform:translate(0, 0px); opacity:1" fill="url(#sw-gradient-0)" d="M0,245L40,277.7C80,310,160,376,240,400.2C320,425,400,408,480,392C560,376,640,359,720,310.3C800,261,880,180,960,122.5C1040,65,1120,33,1200,49C1280,65,1360,131,1440,163.3C1520,196,1600,196,1680,179.7C1760,163,1840,131,1920,147C2000,163,2080,229,2160,236.8C2240,245,2320,196,2400,187.8C2480,180,2560,212,2640,261.3C2720,310,2800,376,2880,400.2C2960,425,3040,408,3120,367.5C3200,327,3280,261,3360,220.5C3440,180,3520,163,3600,163.3C3680,163,3760,180,3840,196C3920,212,4000,229,4080,228.7C4160,229,4240,212,4320,245C4400,278,4480,359,4560,375.7C4640,392,4720,343,4800,318.5C4880,294,4960,294,5040,253.2C5120,212,5200,131,5280,122.5C5360,114,5440,180,5520,196C5600,212,5680,180,5720,163.3L5760,147L5760,490L5720,490C5680,490,5600,490,5520,490C5440,490,5360,490,5280,490C5200,490,5120,490,5040,490C4960,490,4880,490,4800,490C4720,490,4640,490,4560,490C4480,490,4400,490,4320,490C4240,490,4160,490,4080,490C4000,490,3920,490,3840,490C3760,490,3680,490,3600,490C3520,490,3440,490,3360,490C3280,490,3200,490,3120,490C3040,490,2960,490,2880,490C2800,490,2720,490,2640,490C2560,490,2480,490,2400,490C2320,490,2240,490,2160,490C2080,490,2000,490,1920,490C1840,490,1760,490,1680,490C1600,490,1520,490,1440,490C1360,490,1280,490,1200,490C1120,490,1040,490,960,490C880,490,800,490,720,490C640,490,560,490,480,490C400,490,320,490,240,490C160,490,80,490,40,490L0,490Z"/></svg>