<?xml version="1.0" standalone="no"?>
<svg xmlns:xlink="http://www.w3.org/1999/xlink" id="wave" style="transform:rotate(0deg); transition: 0.3s" viewBox="0 0 1440 490" version="1.1" xmlns="http://www.w3.org/2000/svg"><defs><linearGradient id="sw-gradient-0" x1="0" x2="0" y1="1" y2="0"><stop stop-color="rgba(30, 41, 59, 1)" offset="0%"/><stop stop-color="rgba(249, 115, 22, 1)" offset="100%"/></linearGradient></defs><path style="transform:translate(0, 0px); opacity:1" fill="url(#sw-gradient-0)" d="M0,196L40,220.5C80,245,160,294,240,302.2C320,310,400,278,480,236.8C560,196,640,147,720,114.3C800,82,880,65,960,65.3C1040,65,1120,82,1200,122.5C1280,163,1360,229,1440,236.8C1520,245,1600,196,1680,147C1760,98,1840,49,1920,24.5C2000,0,2080,0,2160,0C2240,0,2320,0,2400,40.8C2480,82,2560,163,2640,163.3C2720,163,2800,82,2880,57.2C2960,33,3040,65,3120,114.3C3200,163,3280,229,3360,212.3C3440,196,3520,98,3600,49C3680,0,3760,0,3840,73.5C3920,147,4000,294,4080,326.7C4160,359,4240,278,4320,269.5C4400,261,4480,327,4560,367.5C4640,408,4720,425,4800,375.7C4880,327,4960,212,5040,196C5120,180,5200,261,5280,302.2C5360,343,5440,343,5520,318.5C5600,294,5680,245,5720,220.5L5760,196L5760,490L5720,490C5680,490,5600,490,5520,490C5440,490,5360,490,5280,490C5200,490,5120,490,5040,490C4960,490,4880,490,4800,490C4720,490,4640,490,4560,490C4480,490,4400,490,4320,490C4240,490,4160,490,4080,490C4000,490,3920,490,3840,490C3760,490,3680,490,3600,490C3520,490,3440,490,3360,490C3280,490,3200,490,3120,490C3040,490,2960,490,2880,490C2800,490,2720,490,2640,490C2560,490,2480,490,2400,490C2320,490,2240,490,2160,490C2080,490,2000,490,1920,490C1840,490,1760,490,1680,490C1600,490,1520,490,1440,490C1360,490,1280,490,1200,490C1120,490,1040,490,960,490C880,490,800,490,720,490C640,490,560,490,480,490C400,490,320,490,240,490C160,490,80,490,40,490L0,490Z"/></svg>