<?xml version="1.0" standalone="no"?>
<svg xmlns:xlink="http://www.w3.org/1999/xlink" id="wave" style="transform:rotate(0deg); transition: 0.3s" viewBox="0 0 1440 490" version="1.1" xmlns="http://www.w3.org/2000/svg"><defs><linearGradient id="sw-gradient-0" x1="0" x2="0" y1="1" y2="0"><stop stop-color="rgba(255, 255, 255, 1)" offset="0%"/><stop stop-color="rgba(0, 178, 255, 1)" offset="100%"/></linearGradient></defs><path style="transform:translate(0, 0px); opacity:1" fill="url(#sw-gradient-0)" d="M0,294L80,253.2C160,212,320,131,480,130.7C640,131,800,212,960,253.2C1120,294,1280,294,1440,253.2C1600,212,1760,131,1920,130.7C2080,131,2240,212,2400,220.5C2560,229,2720,163,2880,147C3040,131,3200,163,3360,220.5C3520,278,3680,359,3840,383.8C4000,408,4160,376,4320,359.3C4480,343,4640,343,4800,285.8C4960,229,5120,114,5280,89.8C5440,65,5600,131,5760,138.8C5920,147,6080,98,6240,73.5C6400,49,6560,49,6720,81.7C6880,114,7040,180,7200,228.7C7360,278,7520,310,7680,334.8C7840,359,8000,376,8160,343C8320,310,8480,229,8640,212.3C8800,196,8960,245,9120,294C9280,343,9440,392,9600,375.7C9760,359,9920,278,10080,204.2C10240,131,10400,65,10560,81.7C10720,98,10880,196,11040,245C11200,294,11360,294,11440,294L11520,294L11520,490L11440,490C11360,490,11200,490,11040,490C10880,490,10720,490,10560,490C10400,490,10240,490,10080,490C9920,490,9760,490,9600,490C9440,490,9280,490,9120,490C8960,490,8800,490,8640,490C8480,490,8320,490,8160,490C8000,490,7840,490,7680,490C7520,490,7360,490,7200,490C7040,490,6880,490,6720,490C6560,490,6400,490,6240,490C6080,490,5920,490,5760,490C5600,490,5440,490,5280,490C5120,490,4960,490,4800,490C4640,490,4480,490,4320,490C4160,490,4000,490,3840,490C3680,490,3520,490,3360,490C3200,490,3040,490,2880,490C2720,490,2560,490,2400,490C2240,490,2080,490,1920,490C1760,490,1600,490,1440,490C1280,490,1120,490,960,490C800,490,640,490,480,490C320,490,160,490,80,490L0,490Z"/><defs><linearGradient id="sw-gradient-1" x1="0" x2="0" y1="1" y2="0"><stop stop-color="rgba(255, 255, 255, 1)" offset="0%"/><stop stop-color="rgba(0, 178, 255, 0.38)" offset="100%"/></linearGradient></defs><path style="transform:translate(0, 50px); opacity:0.9" fill="url(#sw-gradient-1)" d="M0,343L80,318.5C160,294,320,245,480,204.2C640,163,800,131,960,106.2C1120,82,1280,65,1440,106.2C1600,147,1760,245,1920,277.7C2080,310,2240,278,2400,228.7C2560,180,2720,114,2880,73.5C3040,33,3200,16,3360,8.2C3520,0,3680,0,3840,73.5C4000,147,4160,294,4320,351.2C4480,408,4640,376,4800,326.7C4960,278,5120,212,5280,171.5C5440,131,5600,114,5760,163.3C5920,212,6080,327,6240,375.7C6400,425,6560,408,6720,343C6880,278,7040,163,7200,106.2C7360,49,7520,49,7680,81.7C7840,114,8000,180,8160,228.7C8320,278,8480,310,8640,318.5C8800,327,8960,310,9120,310.3C9280,310,9440,327,9600,302.2C9760,278,9920,212,10080,228.7C10240,245,10400,343,10560,343C10720,343,10880,245,11040,187.8C11200,131,11360,114,11440,106.2L11520,98L11520,490L11440,490C11360,490,11200,490,11040,490C10880,490,10720,490,10560,490C10400,490,10240,490,10080,490C9920,490,9760,490,9600,490C9440,490,9280,490,9120,490C8960,490,8800,490,8640,490C8480,490,8320,490,8160,490C8000,490,7840,490,7680,490C7520,490,7360,490,7200,490C7040,490,6880,490,6720,490C6560,490,6400,490,6240,490C6080,490,5920,490,5760,490C5600,490,5440,490,5280,490C5120,490,4960,490,4800,490C4640,490,4480,490,4320,490C4160,490,4000,490,3840,490C3680,490,3520,490,3360,490C3200,490,3040,490,2880,490C2720,490,2560,490,2400,490C2240,490,2080,490,1920,490C1760,490,1600,490,1440,490C1280,490,1120,490,960,490C800,490,640,490,480,490C320,490,160,490,80,490L0,490Z"/><defs><linearGradient id="sw-gradient-2" x1="0" x2="0" y1="1" y2="0"><stop stop-color="rgba(255, 255, 255, 1)" offset="0%"/><stop stop-color="rgba(0, 178, 255, 0.44)" offset="100%"/></linearGradient></defs><path style="transform:translate(0, 100px); opacity:0.8" fill="url(#sw-gradient-2)" d="M0,245L80,269.5C160,294,320,343,480,302.2C640,261,800,131,960,81.7C1120,33,1280,65,1440,130.7C1600,196,1760,294,1920,285.8C2080,278,2240,163,2400,114.3C2560,65,2720,82,2880,73.5C3040,65,3200,33,3360,49C3520,65,3680,131,3840,155.2C4000,180,4160,163,4320,187.8C4480,212,4640,278,4800,326.7C4960,376,5120,408,5280,400.2C5440,392,5600,343,5760,310.3C5920,278,6080,261,6240,269.5C6400,278,6560,310,6720,310.3C6880,310,7040,278,7200,220.5C7360,163,7520,82,7680,73.5C7840,65,8000,131,8160,163.3C8320,196,8480,196,8640,187.8C8800,180,8960,163,9120,155.2C9280,147,9440,147,9600,138.8C9760,131,9920,114,10080,138.8C10240,163,10400,229,10560,236.8C10720,245,10880,196,11040,155.2C11200,114,11360,82,11440,65.3L11520,49L11520,490L11440,490C11360,490,11200,490,11040,490C10880,490,10720,490,10560,490C10400,490,10240,490,10080,490C9920,490,9760,490,9600,490C9440,490,9280,490,9120,490C8960,490,8800,490,8640,490C8480,490,8320,490,8160,490C8000,490,7840,490,7680,490C7520,490,7360,490,7200,490C7040,490,6880,490,6720,490C6560,490,6400,490,6240,490C6080,490,5920,490,5760,490C5600,490,5440,490,5280,490C5120,490,4960,490,4800,490C4640,490,4480,490,4320,490C4160,490,4000,490,3840,490C3680,490,3520,490,3360,490C3200,490,3040,490,2880,490C2720,490,2560,490,2400,490C2240,490,2080,490,1920,490C1760,490,1600,490,1440,490C1280,490,1120,490,960,490C800,490,640,490,480,490C320,490,160,490,80,490L0,490Z"/></svg>