<?xml version="1.0" standalone="no"?>
<svg xmlns:xlink="http://www.w3.org/1999/xlink" id="wave" style="transform:rotate(180deg); transition: 0.3s" viewBox="0 0 1440 490" version="1.1" xmlns="http://www.w3.org/2000/svg"><defs><linearGradient id="sw-gradient-0" x1="0" x2="0" y1="1" y2="0"><stop stop-color="rgba(30, 41, 59, 1)" offset="0%"/><stop stop-color="rgba(56, 189, 248, 1)" offset="100%"/></linearGradient></defs><path style="transform:translate(0, 0px); opacity:1" fill="url(#sw-gradient-0)" d="M0,294L40,245C80,196,160,98,240,122.5C320,147,400,294,480,359.3C560,425,640,408,720,375.7C800,343,880,294,960,261.3C1040,229,1120,212,1200,171.5C1280,131,1360,65,1440,57.2C1520,49,1600,98,1680,106.2C1760,114,1840,82,1920,89.8C2000,98,2080,147,2160,179.7C2240,212,2320,229,2400,245C2480,261,2560,278,2640,269.5C2720,261,2800,229,2880,187.8C2960,147,3040,98,3120,114.3C3200,131,3280,212,3360,261.3C3440,310,3520,327,3600,343C3680,359,3760,376,3840,343C3920,310,4000,229,4080,236.8C4160,245,4240,343,4320,318.5C4400,294,4480,147,4560,106.2C4640,65,4720,131,4800,179.7C4880,229,4960,261,5040,269.5C5120,278,5200,261,5280,245C5360,229,5440,212,5520,171.5C5600,131,5680,65,5720,32.7L5760,0L5760,490L5720,490C5680,490,5600,490,5520,490C5440,490,5360,490,5280,490C5200,490,5120,490,5040,490C4960,490,4880,490,4800,490C4720,490,4640,490,4560,490C4480,490,4400,490,4320,490C4240,490,4160,490,4080,490C4000,490,3920,490,3840,490C3760,490,3680,490,3600,490C3520,490,3440,490,3360,490C3280,490,3200,490,3120,490C3040,490,2960,490,2880,490C2800,490,2720,490,2640,490C2560,490,2480,490,2400,490C2320,490,2240,490,2160,490C2080,490,2000,490,1920,490C1840,490,1760,490,1680,490C1600,490,1520,490,1440,490C1360,490,1280,490,1200,490C1120,490,1040,490,960,490C880,490,800,490,720,490C640,490,560,490,480,490C400,490,320,490,240,490C160,490,80,490,40,490L0,490Z"/></svg>