<?xml version="1.0" standalone="no"?>
<svg xmlns:xlink="http://www.w3.org/1999/xlink" id="wave" style="transform:rotate(0deg); transition: 0.3s" viewBox="0 0 1440 490" version="1.1" xmlns="http://www.w3.org/2000/svg"><defs><linearGradient id="sw-gradient-0" x1="0" x2="0" y1="1" y2="0"><stop stop-color="rgba(30, 41, 59, 1)" offset="0%"/><stop stop-color="rgba(249, 115, 22, 1)" offset="100%"/></linearGradient></defs><path style="transform:translate(0, 0px); opacity:1" fill="url(#sw-gradient-0)" d="M0,98L40,130.7C80,163,160,229,240,269.5C320,310,400,327,480,302.2C560,278,640,212,720,187.8C800,163,880,180,960,155.2C1040,131,1120,65,1200,49C1280,33,1360,65,1440,65.3C1520,65,1600,33,1680,16.3C1760,0,1840,0,1920,16.3C2000,33,2080,65,2160,106.2C2240,147,2320,196,2400,212.3C2480,229,2560,212,2640,220.5C2720,229,2800,261,2880,277.7C2960,294,3040,294,3120,277.7C3200,261,3280,229,3360,179.7C3440,131,3520,65,3600,40.8C3680,16,3760,33,3840,106.2C3920,180,4000,310,4080,334.8C4160,359,4240,278,4320,245C4400,212,4480,229,4560,196C4640,163,4720,82,4800,40.8C4880,0,4960,0,5040,73.5C5120,147,5200,294,5280,310.3C5360,327,5440,212,5520,212.3C5600,212,5680,327,5720,383.8L5760,441L5760,490L5720,490C5680,490,5600,490,5520,490C5440,490,5360,490,5280,490C5200,490,5120,490,5040,490C4960,490,4880,490,4800,490C4720,490,4640,490,4560,490C4480,490,4400,490,4320,490C4240,490,4160,490,4080,490C4000,490,3920,490,3840,490C3760,490,3680,490,3600,490C3520,490,3440,490,3360,490C3280,490,3200,490,3120,490C3040,490,2960,490,2880,490C2800,490,2720,490,2640,490C2560,490,2480,490,2400,490C2320,490,2240,490,2160,490C2080,490,2000,490,1920,490C1840,490,1760,490,1680,490C1600,490,1520,490,1440,490C1360,490,1280,490,1200,490C1120,490,1040,490,960,490C880,490,800,490,720,490C640,490,560,490,480,490C400,490,320,490,240,490C160,490,80,490,40,490L0,490Z"/></svg>